<svg width="180" height="167" viewBox="0 0 180 167" fill="none" xmlns="http://www.w3.org/2000/svg">
<g clip-path="url(#clip0_1_981)">
<path d="M26.833 153.729C61.721 170.384 118.283 170.389 153.171 153.729C188.059 137.068 188.054 110.067 153.171 93.4114C118.288 76.7561 61.721 76.7561 26.833 93.4114C-8.05487 110.067 -8.04981 137.073 26.833 153.729Z" fill="#1F67FF"/>
<path d="M153.05 141.421C159.475 141.421 164.684 138.935 164.684 135.868C164.684 132.801 159.475 130.314 153.05 130.314C146.624 130.314 141.415 132.801 141.415 135.868C141.415 138.935 146.624 141.421 153.05 141.421Z" fill="#0052FE"/>
<path d="M24.1846 136.662L28.3007 134.284C30.5988 132.405 32.348 129.94 33.3635 127.148C34.6343 123.638 34.4571 120.971 33.5458 119.632C32.4269 117.983 29.5259 118.273 29.4095 121.742C29.1665 128.578 27.1768 133.32 24.1846 136.662Z" fill="#27DEBF"/>
<path d="M24.1846 136.662L28.3007 134.284C30.5988 132.405 32.348 129.94 33.3635 127.148C34.6343 123.638 34.4571 120.971 33.5458 119.632C32.4269 117.983 29.5259 118.273 29.4095 121.742C29.1665 128.578 27.1768 133.32 24.1846 136.662Z" fill="url(#paint0_linear_1_981)"/>
<path d="M24.1866 136.915C24.133 136.914 24.081 136.897 24.0381 136.864C23.9952 136.832 23.9635 136.787 23.9478 136.736C23.932 136.685 23.9329 136.63 23.9504 136.579C23.9678 136.528 24.0009 136.484 24.0449 136.453C33.563 129.86 31.7201 120.665 31.6999 120.574C31.6929 120.541 31.6925 120.506 31.6988 120.473C31.705 120.44 31.7178 120.408 31.7364 120.379C31.755 120.351 31.779 120.326 31.807 120.307C31.835 120.288 31.8666 120.274 31.8998 120.267C31.9331 120.26 31.9674 120.26 32.0008 120.266C32.0341 120.272 32.066 120.285 32.0944 120.304C32.1228 120.322 32.1474 120.347 32.1665 120.375C32.1857 120.403 32.1992 120.434 32.2061 120.468C32.2061 120.564 34.1503 130.073 24.3486 136.869C24.3011 136.902 24.2442 136.918 24.1866 136.915Z" fill="white"/>
<path d="M15.9366 141.434C15.9366 141.434 14.5038 140.267 14.8481 138.685C15.1924 137.102 16.1189 135.966 14.5342 133.928C12.9495 131.889 12.5091 129.17 14.4026 127.7C15.8455 126.558 18.0984 128.171 18.9085 125.164C19.5059 122.963 19.3034 118.089 22.1031 116.466C24.9029 114.843 26.6597 117.287 26.2192 120.594C25.8344 123.551 25.2876 126.396 25.7129 127.187C26.5331 128.709 27.9355 128.501 27.8697 131.28C27.814 133.867 25.3686 136.007 25.3686 136.007L15.9366 141.434Z" fill="url(#paint1_linear_1_981)"/>
<path d="M20.6429 138.951C20.581 138.951 20.5214 138.928 20.4749 138.887C20.4285 138.846 20.3982 138.79 20.3897 138.728C19.6658 132.718 21.4023 122.342 22.8199 119.258C22.8318 119.224 22.8509 119.193 22.8759 119.166C22.9009 119.14 22.9313 119.12 22.9648 119.106C22.9984 119.093 23.0345 119.087 23.0706 119.088C23.1068 119.09 23.1421 119.1 23.1743 119.116C23.2045 119.13 23.2317 119.149 23.2542 119.174C23.2768 119.198 23.2943 119.226 23.3056 119.258C23.3169 119.289 23.3219 119.322 23.3202 119.355C23.3185 119.388 23.3102 119.421 23.2958 119.451C21.8934 122.494 20.2176 132.901 20.9112 138.647C20.9183 138.714 20.8989 138.78 20.8572 138.832C20.8155 138.885 20.7548 138.918 20.6884 138.926L20.6429 138.951Z" fill="white"/>
<path d="M20.5033 134.273C20.4645 134.275 20.426 134.266 20.3919 134.248C18.6351 133.391 17.5213 130.332 17.4757 130.19C17.4633 130.159 17.4573 130.125 17.4581 130.091C17.459 130.057 17.4666 130.024 17.4805 129.993C17.4944 129.962 17.5144 129.934 17.5392 129.911C17.5641 129.888 17.5933 129.87 17.6251 129.859C17.6569 129.847 17.6907 129.842 17.7245 129.844C17.7583 129.846 17.7914 129.854 17.8219 129.869C17.8523 129.884 17.8795 129.905 17.9018 129.93C17.924 129.956 17.941 129.986 17.9516 130.018C17.9516 130.048 19.0401 133.01 20.6146 133.776C20.6663 133.801 20.7079 133.843 20.7327 133.895C20.7574 133.947 20.7639 134.005 20.7509 134.061C20.738 134.117 20.7064 134.167 20.6614 134.203C20.6164 134.239 20.5607 134.258 20.5033 134.258V134.273Z" fill="white"/>
<path d="M20.4753 136.301C20.4246 136.301 20.3751 136.286 20.3334 136.257C20.2918 136.228 20.26 136.187 20.2424 136.139C20.2172 136.077 20.2175 136.008 20.2431 135.946C20.2687 135.884 20.3176 135.835 20.3791 135.809C23.3358 134.623 25.1787 131.098 25.1989 131.057C25.2298 130.997 25.2832 130.952 25.3473 130.932C25.4113 130.911 25.4809 130.917 25.5407 130.948C25.6004 130.979 25.6455 131.033 25.6659 131.097C25.6863 131.161 25.6804 131.231 25.6495 131.291C25.5685 131.443 23.7003 135.023 20.5867 136.281C20.552 136.298 20.5136 136.305 20.4753 136.301Z" fill="white"/>
<path d="M123.821 109.018C123.821 109.018 121.608 105.427 121.39 101.527C121.173 97.6266 122.028 96.0037 123.203 95.5371C124.378 95.0705 124.469 96.5057 125.071 97.3527C125.674 98.1997 126.904 97.7179 127.36 95.0755C127.815 92.4332 129.476 87.9752 132.929 87.108C136.726 86.1646 134.69 90.6277 133.734 92.3673C132.777 94.1069 132.038 96.4804 132.665 97.1245C133.293 97.7686 134.27 96.5768 135.197 97.6824C136.326 99.0162 132.817 103.819 130.802 104.98L123.821 109.018Z" fill="url(#paint2_linear_1_981)"/>
<path d="M126.856 107.51C126.822 107.509 126.79 107.501 126.759 107.487C126.729 107.473 126.702 107.453 126.679 107.429C126.657 107.404 126.639 107.376 126.628 107.344C126.616 107.313 126.611 107.28 126.613 107.246C126.955 100.973 128.908 94.8935 132.283 89.5971C132.302 89.5695 132.327 89.546 132.355 89.5282C132.383 89.5104 132.415 89.4985 132.448 89.4932C132.481 89.488 132.515 89.4896 132.548 89.4978C132.58 89.5061 132.611 89.5209 132.637 89.5413C132.69 89.5808 132.726 89.6395 132.736 89.7049C132.747 89.7703 132.731 89.8371 132.693 89.8912C129.379 95.1102 127.461 101.096 127.124 107.272C127.122 107.305 127.114 107.338 127.099 107.368C127.084 107.398 127.064 107.425 127.039 107.447C127.014 107.469 126.985 107.486 126.954 107.497C126.922 107.508 126.889 107.512 126.856 107.51Z" fill="white"/>
<path d="M127.143 104.513C127.101 104.512 127.059 104.502 127.022 104.482C125.604 103.696 124.819 101.363 124.789 101.267C124.778 101.235 124.773 101.202 124.775 101.168C124.777 101.135 124.785 101.102 124.8 101.072C124.814 101.041 124.835 101.014 124.86 100.992C124.885 100.97 124.914 100.953 124.946 100.942C125.01 100.921 125.079 100.927 125.139 100.957C125.199 100.988 125.244 101.041 125.265 101.104C125.265 101.104 126.024 103.351 127.29 104.036C127.347 104.07 127.389 104.125 127.407 104.189C127.425 104.253 127.418 104.322 127.386 104.381C127.363 104.424 127.328 104.46 127.285 104.484C127.241 104.507 127.192 104.517 127.143 104.513Z" fill="white"/>
<path d="M127.393 102.975C127.337 102.974 127.282 102.955 127.238 102.92C127.194 102.885 127.163 102.837 127.15 102.782C127.141 102.75 127.139 102.717 127.144 102.684C127.149 102.652 127.16 102.62 127.177 102.592C127.194 102.564 127.216 102.539 127.243 102.519C127.27 102.5 127.3 102.486 127.332 102.478C130.987 101.55 132.253 99.6329 132.263 99.6126C132.281 99.5843 132.304 99.5598 132.332 99.5405C132.359 99.5212 132.39 99.5076 132.423 99.5003C132.455 99.493 132.489 99.4922 132.522 99.498C132.555 99.5037 132.587 99.516 132.615 99.534C132.643 99.5519 132.668 99.5753 132.687 99.6028C132.706 99.6302 132.72 99.6612 132.727 99.6939C132.734 99.7267 132.735 99.7605 132.729 99.7935C132.724 99.8266 132.711 99.8581 132.693 99.8864C132.638 99.9726 131.321 101.986 127.459 102.97L127.393 102.975Z" fill="white"/>
<path d="M68.7372 101.135C68.7372 101.135 63.882 99.9478 63.6288 90.8391C63.3605 81.0103 64.8186 69.5382 59.0723 68.6101C53.326 67.682 50.1364 74.6961 50.2073 82.8868C50.2731 90.0581 53.1589 105.628 68.717 108.681L68.7372 101.135Z" fill="#27DEBF"/>
<path d="M68.7372 101.135C68.7372 101.135 63.882 99.9478 63.6288 90.8391C63.3605 81.0103 64.8186 69.5382 59.0723 68.6101C53.326 67.682 50.1364 74.6961 50.2073 82.8868C50.2731 90.0581 53.1589 105.628 68.717 108.681L68.7372 101.135Z" fill="url(#paint3_linear_1_981)"/>
<path d="M68.7396 107.748H68.6941C65.1956 107.109 62.3453 105.177 60.2239 102.012C53.9359 92.614 55.9155 75.0661 56.5686 72.0029C56.5832 71.9376 56.6225 71.8805 56.6782 71.8437C56.7339 71.8068 56.8016 71.7929 56.8673 71.8051C56.9328 71.8208 56.9899 71.8612 57.0266 71.9178C57.0633 71.9744 57.077 72.043 57.0648 72.1094C56.4218 75.1523 54.4523 92.4771 60.6442 101.728C61.5455 103.162 62.7345 104.394 64.136 105.344C65.5374 106.293 67.1206 106.941 68.7852 107.246C68.8182 107.252 68.8497 107.264 68.8779 107.283C68.906 107.301 68.9302 107.325 68.949 107.353C68.9679 107.381 68.981 107.412 68.9876 107.445C68.9943 107.478 68.9943 107.512 68.9877 107.545C68.9769 107.603 68.9461 107.655 68.9007 107.692C68.8553 107.729 68.7982 107.749 68.7396 107.748Z" fill="white"/>
<path d="M68.7382 131.124C63.7209 131.804 55.5749 131.794 50.8715 128.081C46.1681 124.369 47.1503 121.174 48.9577 119.84C50.7652 118.506 52.3347 116.985 49.2261 114.023C46.1175 111.061 41.1256 106.304 39.5055 99.1678C37.8854 92.032 38.6853 87.5689 41.8647 86.0829C44.948 84.6426 45.7631 86.9349 47.6515 91.6617C49.54 96.3885 53.7877 92.3363 57.4228 93.8121C61.0579 95.288 60.9111 98.2092 61.1389 100.72C61.3667 103.23 62.5666 103.925 64.6272 103.925C66.6878 103.925 68.7382 105.112 68.7382 107.475V131.124Z" fill="url(#paint4_linear_1_981)"/>
<path d="M68.74 122.833C68.7184 122.837 68.6959 122.837 68.6742 122.833C68.4565 122.772 63.2671 121.26 55.7083 114.307C47.6584 106.903 43.8613 95.7956 43.8208 95.684C43.8014 95.6201 43.8074 95.5512 43.8376 95.4916C43.8678 95.4321 43.9199 95.3865 43.9828 95.3645C44.0459 95.3435 44.1148 95.3482 44.1745 95.3776C44.2342 95.407 44.2799 95.4588 44.3018 95.5217C44.3372 95.6333 48.0989 106.619 56.0526 113.932C63.5051 120.794 68.7552 122.331 68.8109 122.346C68.8428 122.355 68.8726 122.371 68.8985 122.391C68.9244 122.412 68.946 122.438 68.962 122.467C68.978 122.496 68.9881 122.529 68.9917 122.562C68.9953 122.595 68.9923 122.628 68.983 122.66C68.9666 122.711 68.9341 122.756 68.8902 122.787C68.8464 122.818 68.7937 122.834 68.74 122.833Z" fill="white"/>
<path d="M57.8177 116.075C57.7668 116.076 57.717 116.061 57.6752 116.032C57.6334 116.003 57.6018 115.961 57.5848 115.913C55.9597 111.734 55.5901 102.793 55.5597 102.412C55.5583 102.345 55.5828 102.28 55.6281 102.231C55.6734 102.182 55.736 102.152 55.8027 102.148C55.8688 102.149 55.9323 102.175 55.9808 102.22C56.0294 102.265 56.0597 102.326 56.066 102.392C56.066 102.483 56.4457 111.627 58.0405 115.73C58.0527 115.762 58.0585 115.795 58.0578 115.829C58.057 115.862 58.0495 115.895 58.0359 115.926C58.0222 115.957 58.0026 115.984 57.9782 116.007C57.9538 116.03 57.925 116.048 57.8937 116.06C57.8692 116.069 57.8436 116.074 57.8177 116.075Z" fill="white"/>
<path d="M57.7773 122.083C57.3105 122.087 56.8439 122.063 56.3799 122.012C56.3467 122.008 56.3145 121.998 56.2854 121.982C56.2562 121.965 56.2305 121.943 56.2098 121.917C56.1891 121.89 56.1738 121.86 56.1648 121.828C56.1558 121.796 56.1532 121.762 56.1571 121.728C56.1611 121.695 56.1716 121.663 56.188 121.634C56.2045 121.604 56.2264 121.579 56.2528 121.558C56.2791 121.537 56.3092 121.522 56.3415 121.513C56.3737 121.504 56.4074 121.501 56.4407 121.505C56.4862 121.505 61.1997 122.043 63.3616 119.837C63.3851 119.813 63.4131 119.794 63.4439 119.781C63.4748 119.768 63.5079 119.762 63.5413 119.762C63.5747 119.762 63.6078 119.768 63.6386 119.781C63.6695 119.794 63.6975 119.813 63.721 119.837C63.7446 119.86 63.7633 119.887 63.7761 119.918C63.7889 119.948 63.7955 119.981 63.7955 120.014C63.7955 120.047 63.7889 120.08 63.7761 120.111C63.7633 120.141 63.7446 120.169 63.721 120.192C62.1566 121.81 59.4277 122.083 57.7773 122.083Z" fill="white"/>
<path d="M54.1331 26.046L53.5863 22.8863L50.7714 24.7426C50.5142 24.2354 50.1496 23.7906 49.7031 23.4392L51.0498 19.7876L48.5184 19.2246L46.6654 22.7748C45.9936 22.8888 45.342 23.1007 44.7314 23.4037L43.9315 20.7258L40.9242 23.0943L41.1216 26.2387C40.5092 26.9259 39.9539 27.6621 39.461 28.4398L36.9803 28.313L35.2386 32.2233L37.3701 33.1362C37.1476 33.945 37.0068 34.7741 36.9499 35.6111L34.2413 38.1064L34.783 41.2711L37.603 39.4149C37.8587 39.9215 38.2236 40.365 38.6712 40.7132L37.3498 44.3699L39.8813 44.9278L42.5342 42.3412C43.1468 42.2448 42.9949 41.0885 43.6632 40.7589L44.4682 43.4265L47.4704 41.0632L47.3945 39.8257C48.002 39.1461 50.3005 37.6499 50.7967 36.8689L51.4194 35.8546L53.161 31.9443L52.351 30.4735L51.4498 28.5565L54.1331 26.046ZM44.9441 36.4479C42.6354 38.2636 41.9064 38.6643 41.5165 36.2349C41.1267 33.8056 42.4481 30.1135 44.7568 28.2927C47.0654 26.472 47.9463 26.3452 48.3615 28.7695C48.7766 31.1937 47.2578 34.6526 44.9441 36.4479Z" fill="#E0E0E0"/>
<path d="M48.5396 19.2324L51.8203 21.1292L49.9673 24.6642L46.6866 22.7724L48.5396 19.2324Z" fill="#6D9CFF"/>
<path d="M56.8682 24.7855L54.0532 26.6417L50.7725 24.75L53.5875 22.8887L56.8682 24.7855Z" fill="#6D9CFF"/>
<path d="M56.4171 33.8329L54.2857 32.92L51.0049 31.0232L53.1364 31.9361L56.4171 33.8329Z" fill="#E0E0E0"/>
<path d="M37.3448 44.3723L40.6255 46.2691L41.9722 42.6175L38.6915 40.7207L37.3448 44.3723Z" fill="#E0E0E0"/>
<path d="M47.7254 45.3321L44.4396 43.4353L43.6397 40.7676L46.9204 42.6644L47.7254 45.3321Z" fill="#E0E0E0"/>
<path d="M57.4146 27.9444L56.8729 24.7848L54.0579 26.641C53.7989 26.1336 53.4326 25.6889 52.9846 25.3376L54.3313 21.686L51.8252 21.123L49.9672 24.6732C49.2968 24.7865 48.6468 24.9984 48.0382 25.3021L47.2383 22.6344L44.231 25.0029L44.4284 28.1473C43.8154 28.8393 43.26 29.5806 42.7678 30.3636L40.282 30.2368L38.5404 34.1471L40.6718 35.06C40.4513 35.8709 40.3106 36.7016 40.2516 37.54L37.5481 39.9997L38.0898 43.1645L40.9047 41.3082C41.1639 41.8141 41.5302 42.2572 41.978 42.6066L40.6313 46.2582L43.1627 46.8211L45.0157 43.271C45.6887 43.1589 46.3408 42.9452 46.9497 42.637L47.7497 45.3047L50.757 42.9413L50.5595 39.7969C51.1719 39.1097 51.7273 38.3735 52.2201 37.5958L54.706 37.7175L56.4476 33.8073L54.2858 32.8994C54.5099 32.0891 54.6524 31.2582 54.711 30.4194L57.4146 27.9444ZM48.2357 38.3667C45.9321 40.1823 43.7247 39.6904 43.3045 37.2661C42.8843 34.8419 44.4183 31.3982 46.727 29.5826C49.0356 27.7669 51.2379 28.2639 51.6582 30.6882C52.0784 33.1124 50.5443 36.551 48.2357 38.3667Z" fill="#1F67FF"/>
<path d="M47.2324 22.6273L43.9467 20.7305L40.9444 23.0989L44.2251 24.9907L47.2324 22.6273Z" fill="#6D9CFF"/>
<path d="M40.9444 23.0996L41.1418 26.239L44.4226 28.1358L44.2251 24.9913L40.9444 23.0996Z" fill="#E0E0E0"/>
<path d="M42.7637 30.3408L39.483 28.444L36.9971 28.3223L40.2829 30.2191L42.7637 30.3408Z" fill="#F5F5F5"/>
<path d="M36.9966 28.3223L35.2549 32.2325L38.5407 34.1293L40.2823 30.2191L36.9966 28.3223Z" fill="#6D9CFF"/>
<path d="M40.2501 37.5159L36.9644 35.6191L34.2608 38.1144L37.5415 40.0112L40.2501 37.5159Z" fill="#F5F5F5"/>
<path d="M38.0832 43.1697L34.8025 41.2729L34.2608 38.1133L37.5415 40.0101L38.0832 43.1697Z" fill="#6D9CFF"/>
<path d="M51.8189 21.1292L48.5381 19.2324L51.0442 19.7954L54.33 21.6922L51.8189 21.1292Z" fill="#F5F5F5"/>
<path d="M39.4209 11.7046V6.98288L35.6693 8.67681C35.4706 7.87572 35.1275 7.11774 34.6568 6.44021L37.0211 1.66778L34.1353 -0.00585938L31.1888 4.43691C30.3676 4.36505 29.5403 4.44586 28.7485 4.67528L28.3333 0.572309L24.2527 2.9357L23.8426 7.50019C22.9545 8.28848 22.1379 9.15405 21.4023 10.0867L18.4557 9.0724L15.5699 14.0832L17.9292 16.1119C17.4933 17.2162 17.1545 18.3566 16.9167 19.52L13.1651 22.1623V26.8891L16.9167 25.1952C17.1154 25.9963 17.4585 26.7543 17.9292 27.4318L15.5801 32.2093L18.4659 33.8779L21.4124 29.4402C22.2336 29.5118 23.0609 29.431 23.8527 29.2018L24.2628 33.3048L28.3434 30.9414L28.7586 26.3769C30.0322 25.9114 31.1605 25.1171 32.0292 24.0744L34.1454 24.8199L37.0312 19.8142L35.2593 18.2927C35.6439 17.0239 35.7865 15.6939 35.6795 14.3723L39.4209 11.7046ZM26.293 23.5013C23.1642 25.3118 21.2302 24.0084 21.2302 20.4025C21.2302 16.7965 23.8173 12.3385 26.9512 10.528C30.0851 8.71739 31.9786 10.0208 31.9786 13.6572C31.9786 17.2936 29.4269 21.6856 26.293 23.5013Z" fill="#E0E0E0"/>
<path d="M37.417 1.8968L34.1312 0L31.1846 4.4377L34.4704 6.3345L37.417 1.8968Z" fill="#6D9CFF"/>
<path d="M42.7032 8.88508L39.4225 6.98828L35.671 8.68221L38.9517 10.579L42.7032 8.88508Z" fill="#6D9CFF"/>
<path d="M27.5328 35.2088L24.2521 33.3069L23.837 29.209L27.1227 31.1058L27.5328 35.2088Z" fill="#E0E0E0"/>
<path d="M15.5635 32.215L18.8493 34.1118L21.2136 29.3343L17.9279 27.4375L15.5635 32.215Z" fill="#E0E0E0"/>
<path d="M42.708 13.628V8.9063L38.9565 10.585C38.7598 9.7832 38.4165 9.02485 37.9439 8.34842L40.3082 3.57599L37.4224 1.90234L34.4759 6.34511C33.6547 6.27075 32.8269 6.35161 32.0356 6.58348L31.6204 2.47037L27.5398 4.83376L27.1246 9.39825C26.2378 10.1879 25.4213 11.0533 24.6844 11.9848L21.7378 10.9705L18.852 15.9813L21.2163 18.0099C20.7781 19.1135 20.4392 20.2541 20.2038 21.4181L16.4522 24.0604V28.7872L20.2038 27.0933C20.4003 27.8951 20.7436 28.6535 21.2163 29.3299L18.852 34.1023L21.7378 35.7709L24.6844 31.3332C25.5055 31.405 26.3328 31.3242 27.1246 31.0948L27.5398 35.1978L31.6204 32.8344L32.0305 28.2699C32.9186 27.4816 33.7352 26.616 34.4708 25.6833L37.4174 26.6977L40.3032 21.6919L37.9388 19.6633C38.3769 18.5597 38.7158 17.4191 38.9514 16.2551L42.708 13.628ZM29.5801 25.4247C26.4462 27.2353 23.9047 25.7645 23.9047 22.1433C23.9047 18.5222 26.4361 14.1149 29.5801 12.2992C32.7241 10.4836 35.2505 11.9594 35.2505 15.5806C35.2505 19.2018 32.7089 23.5837 29.5801 25.3993V25.4247Z" fill="#1F67FF"/>
<path d="M21.3949 10.0999L24.6806 11.9967L21.7341 10.9671L18.4483 9.07031L21.3949 10.0999Z" fill="#F0F0F0"/>
<path d="M18.454 9.06759L15.5674 14.0801L18.8521 15.9783L21.7387 10.9658L18.454 9.06759Z" fill="#6D9CFF"/>
<path d="M15.5635 14.0781L18.8493 15.9749L21.2136 18.0137L17.9279 16.1169L15.5635 14.0781Z" fill="#E0E0E0"/>
<path d="M16.9167 19.5254L20.1974 21.4222L16.4458 24.0696L13.1651 22.1728L16.9167 19.5254Z" fill="#F5F5F5"/>
<path d="M13.1651 22.1719L16.4458 24.0687V28.7904L13.1651 26.8936V22.1719Z" fill="#6D9CFF"/>
<path d="M31.6174 2.46711L28.3317 0.570312L24.251 2.9337L27.5317 4.8305L31.6174 2.46711Z" fill="#6D9CFF"/>
<path d="M73.7383 137.907L121.329 110.378C121.434 110.341 121.525 110.272 121.589 110.182C121.653 110.091 121.688 109.982 121.688 109.871C121.688 109.759 121.653 109.651 121.589 109.56C121.525 109.469 121.434 109.401 121.329 109.364L116.929 106.828C116.657 106.69 116.356 106.619 116.051 106.619C115.746 106.619 115.445 106.69 115.172 106.828L67.5667 134.331C67.4619 134.368 67.3711 134.437 67.3068 134.528C67.2426 134.619 67.2081 134.727 67.2081 134.839C67.2081 134.95 67.2426 135.058 67.3068 135.149C67.3711 135.24 67.4619 135.309 67.5667 135.346L71.9815 137.882C72.252 138.023 72.5518 138.099 72.8569 138.103C73.162 138.108 73.4638 138.04 73.7383 137.907Z" fill="#0052FE"/>
<path d="M120.024 4.09457L77.1112 28.9152C76.4733 29.3323 75.9424 29.894 75.5615 30.5548C75.1807 31.2156 74.9606 31.9571 74.919 32.719V134.695C74.919 136.095 75.9012 136.663 77.1112 135.963L120.024 111.142C120.662 110.726 121.194 110.164 121.575 109.503C121.956 108.842 122.176 108.1 122.216 107.338V5.36248C122.216 3.96271 121.239 3.39468 120.024 4.09457Z" fill="#455A64"/>
<path d="M77.1125 28.9117L120.025 4.091C121.108 3.46212 122.005 3.85264 122.187 4.94304C122.086 4.25748 121.841 3.60115 121.468 3.01724C121.095 2.43332 120.604 1.93504 120.025 1.55518L118.243 0.540845C117.563 0.195567 116.812 0.015625 116.051 0.015625C115.289 0.015625 114.538 0.195567 113.858 0.540845L70.9409 25.3412C70.2945 25.7473 69.7615 26.3109 69.3917 26.9794L75.5632 30.5295C75.9329 29.8663 76.4663 29.3093 77.1125 28.9117Z" fill="#37474F"/>
<path d="M68.7375 131.123C68.779 131.885 68.9992 132.626 69.38 133.287C69.7609 133.948 70.2918 134.51 70.9297 134.927L72.7169 135.941C73.3354 136.251 74.0124 136.427 74.7034 136.456C75.3944 136.486 76.0838 136.369 76.7266 136.114C75.7141 136.509 74.9091 135.926 74.9091 134.673V32.7177C74.9344 31.9525 75.1559 31.2068 75.5521 30.5521L69.3805 27.002C68.9898 27.6517 68.7687 28.3894 68.7375 29.1473V131.123Z" fill="#263238"/>
<path d="M78.2944 42.5011L118.863 19.0447C119.592 18.6288 120.179 18.9686 120.179 19.8054V95.2818C120.155 95.7392 120.023 96.1844 119.794 96.581C119.565 96.9776 119.246 97.3144 118.863 97.564L78.3096 121.02C77.5805 121.441 76.9932 121.102 76.9932 120.26V44.7833C77.0163 44.3273 77.146 43.8832 77.3721 43.4867C77.5981 43.0903 77.914 42.7526 78.2944 42.5011Z" fill="white"/>
<path d="M98.5694 20.3658C98.3455 20.513 98.1592 20.7109 98.0255 20.9435C97.8919 21.176 97.8146 21.4367 97.7999 21.7047C97.7999 22.2119 98.1441 22.3995 98.5694 22.151C98.7942 22.0046 98.9811 21.807 99.1149 21.5742C99.2487 21.3415 99.3255 21.0803 99.339 20.8121C99.339 20.3201 98.9947 20.1223 98.5694 20.3658Z" fill="#37474F"/>
<path d="M98.5678 112.901C97.6828 113.481 96.9466 114.262 96.4188 115.18C95.891 116.098 95.5866 117.128 95.5302 118.186C95.5302 120.129 96.8921 120.92 98.5678 119.946C99.4526 119.366 100.189 118.585 100.716 117.667C101.244 116.749 101.549 115.719 101.606 114.661C101.616 112.719 100.249 111.928 98.5678 112.901Z" fill="#37474F"/>
<path d="M91.2855 28.2201C90.8406 28.516 90.4713 28.9125 90.2074 29.3776C89.9436 29.8428 89.7926 30.3636 89.7667 30.8979C89.7667 31.8818 90.4552 32.2825 91.2855 31.7905C91.7352 31.4975 92.1094 31.1022 92.3777 30.6369C92.646 30.1715 92.8009 29.6493 92.8297 29.1127C92.8297 28.1288 92.1411 27.7282 91.2855 28.2201Z" fill="#37474F"/>
<path d="M95.0655 27.8844C95.0655 28.5437 95.5718 28.7922 96.1641 28.4423L106.29 22.5744C106.603 22.3782 106.866 22.1105 107.057 21.7933C107.248 21.476 107.362 21.1181 107.388 20.7486C107.388 20.0943 106.882 19.8458 106.29 20.1958L96.1641 26.0637C95.8511 26.2594 95.5885 26.5262 95.3977 26.8426C95.2068 27.1589 95.093 27.5158 95.0655 27.8844Z" fill="#37474F"/>
<path d="M72.161 45.7662C72.5203 46.0006 72.8194 46.3165 73.034 46.6884C73.2486 47.0602 73.3727 47.4775 73.3963 47.9064C73.3963 48.6976 72.8445 49.0171 72.161 48.6215C71.8029 48.3862 71.505 48.0699 71.2914 47.6982C71.0777 47.3264 70.9541 46.9096 70.9307 46.4813C70.9307 45.6952 71.4826 45.3756 72.161 45.7662Z" fill="#37474F"/>
<path d="M72.161 55.2908C72.5203 55.5252 72.8194 55.8412 73.034 56.213C73.2486 56.5849 73.3727 57.0021 73.3963 57.431C73.3963 58.2171 72.8445 58.5366 72.161 58.1461C71.8029 57.9108 71.505 57.5946 71.2914 57.2228C71.0777 56.8511 70.9541 56.4342 70.9307 56.0059C70.9307 55.2147 71.4826 54.8952 72.161 55.2908Z" fill="#37474F"/>
<path d="M71.7774 45.9599C72.1367 46.1943 72.4357 46.5103 72.6504 46.8821C72.865 47.254 72.9891 47.6712 73.0127 48.1001C73.0127 48.8862 72.4609 49.2057 71.7774 48.8152C71.4181 48.5808 71.119 48.2648 70.9044 47.893C70.6898 47.5211 70.5656 47.1039 70.5421 46.675C70.5471 45.8838 71.099 45.5795 71.7774 45.9599Z" fill="#455A64"/>
<path d="M71.7774 55.479C72.1373 55.714 72.4368 56.0307 72.6515 56.4035C72.8662 56.7763 72.9899 57.1946 73.0127 57.6244C73.0127 58.4105 72.4609 58.73 71.7774 58.3344C71.4173 58.1009 71.1175 57.7851 70.9028 57.4131C70.6881 57.041 70.5644 56.6233 70.5421 56.1941C70.5471 55.408 71.099 55.0885 71.7774 55.479Z" fill="#455A64"/>
<path d="M128.39 22.1953C128.39 21.3534 127.803 21.0136 127.074 21.4345L122.218 24.2391L86.5205 44.8909C86.1371 45.1405 85.8179 45.4773 85.5892 45.8739C85.3604 46.2706 85.2285 46.7157 85.2042 47.1732V122.629C85.2042 123.471 85.7914 123.811 86.5205 123.39L122.234 102.733L127.074 99.9336C127.457 99.684 127.776 99.3472 128.005 98.9506C128.234 98.5539 128.366 98.1088 128.39 97.6513V22.1953Z" fill="white" stroke="#27DEBF" stroke-width="0.565386" stroke-miterlimit="10"/>
<path d="M85.9521 123.827C85.7732 123.829 85.5974 123.78 85.4458 123.685C85.2733 123.567 85.1354 123.405 85.0464 123.216C84.9574 123.027 84.9205 122.818 84.9395 122.609V47.1736C84.9627 46.6716 85.1058 46.1824 85.3569 45.7473C85.608 45.3123 85.9597 44.9439 86.3824 44.6733L122.08 24.0215L122.334 24.4627L86.6356 45.1094C86.2913 45.3378 86.0047 45.6431 85.7983 46.0013C85.5918 46.3595 85.4712 46.7608 85.4458 47.1736V122.63C85.4108 122.75 85.4169 122.878 85.4633 122.994C85.5096 123.11 85.5935 123.207 85.7015 123.269C85.8094 123.332 85.9352 123.356 86.0587 123.339C86.1821 123.321 86.2961 123.263 86.3824 123.172L122.096 102.515L122.349 102.957L86.6356 123.614C86.4289 123.74 86.194 123.814 85.9521 123.827Z" fill="#0C7CEC" stroke="#0C7CEC" stroke-width="0.565386" stroke-miterlimit="10"/>
<path d="M122.359 102.955L122.106 102.513L126.946 99.7139C127.29 99.4855 127.577 99.1802 127.783 98.822C127.99 98.4638 128.111 98.0625 128.136 97.6497V22.1936C128.171 22.0737 128.165 21.9455 128.118 21.8295C128.072 21.7136 127.988 21.6165 127.88 21.554C127.772 21.4914 127.646 21.467 127.523 21.4846C127.4 21.5022 127.286 21.5608 127.199 21.651L122.344 24.4607L122.091 24.0194L126.961 21.2351C127.126 21.1011 127.327 21.0203 127.539 21.0033C127.75 20.9864 127.962 21.0341 128.145 21.1402C128.329 21.2462 128.476 21.4056 128.568 21.5974C128.659 21.7891 128.691 22.0041 128.657 22.2139V97.6497C128.634 98.1523 128.49 98.642 128.239 99.0779C127.988 99.5137 127.637 99.883 127.214 100.155L122.359 102.955Z" fill="#27DEBF" stroke="#0C7CEC" stroke-width="0.565386" stroke-miterlimit="10"/>
<path opacity="0.5" d="M106.795 38.9215C111.738 36.072 115.719 38.3714 115.719 44.0868C115.719 49.8021 111.721 56.7387 106.795 59.5661C101.87 62.3936 97.8721 60.1162 97.8721 54.4063C97.8721 48.6965 101.87 41.7764 106.795 38.9215Z" fill="#D0F3FF"/>
<path d="M111.266 41.5987L102.583 56.4357L105.286 54.8754L106.079 53.1152L110.571 43.1402L111.266 41.5987Z" fill="url(#paint5_linear_1_981)"/>
<path d="M108.706 43.0763L108.429 43.6821L104.072 53.1875L102.583 56.4357L111.266 41.5987L108.706 43.0763Z" fill="url(#paint6_linear_1_981)"/>
<path d="M110.405 50.2041L110.293 50.0855C110.199 49.9864 110.047 49.9834 109.885 50.0767L107.843 51.2559C107.767 51.2996 107.709 51.3853 107.681 51.4704L111.456 51.3127L110.405 50.2041Z" fill="#F69300"/>
<path d="M107.683 51.4704C107.658 51.5461 107.657 51.6212 107.694 51.6653L108.114 52.1601L108.115 52.1595L108.732 52.8868L111.458 51.3125L107.683 51.4702L107.683 51.4704Z" fill="url(#paint7_linear_1_981)"/>
<path d="M106.452 46.1977L105.806 45.4748L105.38 44.9989L102.712 46.5391L106.41 46.5048C106.483 46.4004 106.51 46.2626 106.452 46.1975L106.452 46.1977Z" fill="url(#paint8_linear_1_981)"/>
<path d="M102.712 46.5354L103.85 47.7728C103.855 47.7776 103.859 47.7814 103.864 47.7862C103.958 47.8741 104.104 47.8739 104.261 47.7838L106.304 46.604C106.346 46.5798 106.381 46.5426 106.411 46.5005L102.712 46.5354Z" fill="#F69300"/>
<path d="M90.8789 70.3489L101.465 64.2274C101.972 63.9484 102.341 64.1716 102.341 64.7345V65.0845C102.325 65.3893 102.237 65.686 102.085 65.9504C101.933 66.2148 101.721 66.4394 101.465 66.606L90.8789 72.7275C90.3979 73.0064 90.003 72.7782 90.003 72.2203V71.8704C90.0194 71.5657 90.1073 71.2691 90.2595 71.0048C90.4116 70.7404 90.6238 70.5157 90.8789 70.3489Z" fill="#27DEBF"/>
<path d="M90.8789 70.3489L101.465 64.2274C101.972 63.9484 102.341 64.1716 102.341 64.7345V65.0845C102.325 65.3893 102.237 65.686 102.085 65.9504C101.933 66.2148 101.721 66.4394 101.465 66.606L90.8789 72.7275C90.3979 73.0064 90.003 72.7782 90.003 72.2203V71.8704C90.0194 71.5657 90.1073 71.2691 90.2595 71.0048C90.4116 70.7404 90.6238 70.5157 90.8789 70.3489Z" fill="#D0F3FF"/>
<path d="M90.4435 77.7375L122.471 59.2159C122.709 59.0738 122.906 59.1854 122.906 59.4694V63.2123C122.897 63.3642 122.853 63.512 122.778 63.644C122.702 63.776 122.597 63.8886 122.471 63.9731L90.4435 82.4947C90.2004 82.6368 90.003 82.5201 90.003 82.2412V78.4983C90.0117 78.3458 90.0561 78.1974 90.1326 78.0653C90.2091 77.9331 90.3156 77.8208 90.4435 77.7375Z" fill="#D0F3FF"/>
<path d="M90.8789 86.9984L101.465 80.8769C101.972 80.5979 102.341 80.8261 102.341 81.384V81.734C102.325 82.0389 102.238 82.3357 102.086 82.6002C101.933 82.8646 101.721 83.0892 101.465 83.2555L90.8789 89.3769C90.3979 89.661 90.003 89.4327 90.003 88.8698V88.5199C90.0202 88.2153 90.1084 87.9191 90.2605 87.6549C90.4126 87.3907 90.6244 87.1658 90.8789 86.9984Z" fill="#27DEBF"/>
<path d="M90.8789 86.9984L101.465 80.8769C101.972 80.5979 102.341 80.8261 102.341 81.384V81.734C102.325 82.0389 102.238 82.3357 102.086 82.6002C101.933 82.8646 101.721 83.0892 101.465 83.2555L90.8789 89.3769C90.3979 89.661 90.003 89.4327 90.003 88.8698V88.5199C90.0202 88.2153 90.1084 87.9191 90.2605 87.6549C90.4126 87.3907 90.6244 87.1658 90.8789 86.9984Z" fill="#D0F3FF"/>
<path d="M90.4435 94.387L122.471 75.8653C122.709 75.7233 122.906 75.84 122.906 76.1189V79.8618C122.897 80.0137 122.853 80.1614 122.778 80.2934C122.702 80.4254 122.597 80.5381 122.471 80.6225L90.4435 99.1442C90.2004 99.2862 90.003 99.1746 90.003 98.8906V95.1478C90.0117 94.9952 90.0561 94.8469 90.1326 94.7147C90.2091 94.5826 90.3156 94.4703 90.4435 94.387Z" fill="#27DEBF"/>
<path d="M90.4435 94.387L122.471 75.8653C122.709 75.7233 122.906 75.84 122.906 76.1189V79.8618C122.897 80.0137 122.853 80.1614 122.778 80.2934C122.702 80.4254 122.597 80.5381 122.471 80.6225L90.4435 99.1442C90.2004 99.2862 90.003 99.1746 90.003 98.8906V95.1478C90.0117 94.9952 90.0561 94.8469 90.1326 94.7147C90.2091 94.5826 90.3156 94.4703 90.4435 94.387Z" fill="#D0F3FF"/>
<path d="M103.219 96.5164L115.876 89.2081C116.382 88.9241 116.757 89.1523 116.757 89.7153V93.6306C116.74 93.9359 116.652 94.2328 116.499 94.4973C116.345 94.7617 116.132 94.9861 115.876 95.1521L103.219 102.465C102.712 102.744 102.343 102.516 102.343 101.958V98.0379C102.36 97.7335 102.449 97.4374 102.601 97.1732C102.753 96.9091 102.965 96.6841 103.219 96.5164Z" fill="#27DEBF"/>
<path d="M103.219 96.5164L115.876 89.2081C116.382 88.9241 116.757 89.1523 116.757 89.7153V93.6306C116.74 93.9359 116.652 94.2328 116.499 94.4973C116.345 94.7617 116.132 94.9861 115.876 95.1521L103.219 102.465C102.712 102.744 102.343 102.516 102.343 101.958V98.0379C102.36 97.7335 102.449 97.4374 102.601 97.1732C102.753 96.9091 102.965 96.6841 103.219 96.5164Z" fill="#D0F3FF"/>
<path d="M133.188 79.9911C133.188 79.9911 126.971 71.3997 126.607 70.3549C126.318 69.584 126.607 68.4379 126.698 67.9053C126.789 67.3728 126.87 66.186 126.961 65.8767C127.113 65.2985 126.369 65.4151 125.949 65.9426C125.528 66.47 125.387 67.525 125.169 67.6974C124.951 67.8698 123.296 65.4506 122.43 64.3349C121.564 63.2191 121.022 62.5395 120.491 62.9554C120.111 63.2546 120.395 63.9038 121.022 64.8573C121.389 65.3707 121.727 65.904 122.035 66.4548C122.131 66.6628 121.615 66.678 121.336 67.1091C121.119 67.4438 121.336 67.9865 121.033 68.2451C120.846 68.3876 120.718 68.5941 120.673 68.8251C120.628 69.0561 120.669 69.2955 120.79 69.4978C121.353 70.3844 122.08 71.1555 122.931 71.7699C123.863 72.414 124.237 72.6423 124.789 73.5196C125.341 74.397 130.292 83.3587 130.627 83.8963C130.961 84.4339 131.604 85.5293 132.581 85.5598C133.558 85.5902 141.557 78.6927 141.967 78.3479C143.284 77.2473 143.704 77.085 143.927 78.0791C144.004 78.4306 144.061 78.7862 144.099 79.1441C144.256 80.4019 145.111 84.8954 145.111 84.8954C145.111 84.8954 149.162 86.8581 152.488 85.9097C155.814 84.9613 156.938 83.5463 156.938 83.5463L155.272 80.8279C155.723 79.7071 157.804 75.1629 158.477 71.9829L148.048 70.2941C147.835 70.2484 147.491 70.1622 147.035 70.0456C146.463 69.8934 145.01 69.3913 143.911 70.3549C140.327 73.4841 133.199 79.9911 133.199 79.9911" fill="#FFA8A7"/>
<path d="M153.865 132.704L151.997 135.306C152.846 135.703 153.774 135.902 154.711 135.889C156.387 135.95 156.847 135.382 156.908 135.27C157.192 134.662 156.751 133.566 156.63 132.623L153.865 132.704Z" fill="#37474F"/>
<path d="M152.102 134.058C152.102 134.058 149.834 133.911 148.269 133.718C146.705 133.525 145.464 134.286 145.829 134.93C146.193 135.574 147.059 136.112 148.406 136.563C149.555 136.954 150.937 137.233 152.132 137.577C153.327 137.922 154.157 138.374 154.851 138.13C155.625 137.861 155.96 137.552 155.894 136.984C155.725 136.176 155.515 135.377 155.266 134.59L152.102 134.058Z" fill="#37474F"/>
<path d="M156.908 130.095C156.908 130.095 156.624 132.459 156.604 132.966C156.584 133.473 154.3 133.635 153.865 132.707L153.794 129.816L156.908 130.095Z" fill="#F28F8F"/>
<path d="M154.609 131.543L155.425 135.134C155.425 135.134 155.501 135.57 153.637 135.849C151.774 136.128 148.848 134.87 148.347 134.616C147.846 134.363 147.79 133.851 149.623 133.952C151.455 134.053 152.103 134.059 152.103 134.059L151.506 132.471L154.609 131.543Z" fill="#FFA8A7"/>
<path d="M158.447 71.9499L159.738 71.5898C159.738 71.5898 162.436 80.1457 162.735 80.9724C163.034 81.7991 163.373 82.6714 162.791 83.6908C162.097 84.9029 158.447 89.7768 158.447 89.7768L156.128 87.5047L158.761 82.6765L156.432 77.9598L158.447 71.9499Z" fill="#F28F8F"/>
<path d="M145.188 60.8393C144.886 60.2701 144.732 59.6334 144.742 58.9886C144.751 58.3438 144.924 57.7119 145.244 57.1522C146.53 54.7635 149.395 53.6021 152.808 54.0433C154.387 54.2512 156.251 55.5648 157.268 57.5275C158.392 59.7032 158.498 64.0852 158.787 65.7436L145.188 60.8393Z" fill="#37474F"/>
<path d="M145.098 61.7773C145.098 61.7773 144.288 63.3242 144.43 63.4662C144.64 63.5891 144.869 63.6748 145.108 63.7198L145.098 61.7773Z" fill="#FFA8A7"/>
<path d="M147.557 56.8872C146.676 57.4603 145.158 58.5152 145.092 61.9893C145.021 65.5395 145.527 66.711 146.054 67.1218C146.408 67.4008 148.489 67.2588 149.38 67.0508C150.271 66.8429 152.838 65.5699 153.764 63.6376C154.853 61.3655 154.63 58.0588 153.015 57.0444C152.193 56.5575 151.261 56.2876 150.306 56.2601C149.352 56.2326 148.406 56.4484 147.557 56.8872Z" fill="#FFA8A7"/>
<path d="M156.908 83.5254C158.467 85.9598 159.945 88.0899 160.269 90.8387C160.938 96.6153 158.75 103.219 158.28 107.494C159.165 108.71 159.676 110.159 159.748 111.663C159.748 113.433 156.908 130.093 156.908 130.093C156.908 130.093 154.842 130.722 153.794 129.814L151.845 99.1664L152.857 95.4336L156.908 83.5254Z" fill="#27DEBF"/>
<path opacity="0.2" d="M156.908 83.5254C158.467 85.9598 159.945 88.0899 160.269 90.8387C160.938 96.6153 158.75 103.219 158.28 107.494C159.165 108.71 159.676 110.159 159.748 111.663C159.748 113.433 156.908 130.093 156.908 130.093C156.908 130.093 154.842 130.722 153.794 129.814L151.845 99.1664L152.857 95.4336L156.908 83.5254Z" fill="black"/>
<path d="M151.845 99.1659L152.857 95.4331C154.796 94.9219 156.666 94.1777 158.426 93.2168C158.426 93.2168 157.373 95.139 154.346 96.1939L152.781 100.987L152.65 111.967L151.845 99.1659Z" fill="#27DEBF"/>
<path opacity="0.3" d="M151.845 99.1659L152.857 95.4331C154.796 94.9219 156.666 94.1777 158.426 93.2168C158.426 93.2168 157.373 95.139 154.346 96.1939L152.781 100.987L152.65 111.967L151.845 99.1659Z" fill="black"/>
<path d="M156.907 83.5254C157.742 84.8947 159.737 87.2277 159.312 89.4744C158.806 92.1928 157.337 94.1049 152.872 95.4336L148.68 110.649C148.68 110.649 150.862 112.677 151.53 114.64C152.199 116.603 154.608 131.554 154.608 131.554C154.608 131.554 153.859 132.776 151.505 132.482C151.505 132.482 143.298 113.717 142.721 112.495C142.02 111.257 141.775 109.812 142.027 108.412C142.286 106.444 145.065 84.9049 145.065 84.9049L156.907 83.5254Z" fill="#27DEBF"/>
<path opacity="0.2" d="M156.907 83.5254C157.742 84.8947 159.737 87.2277 159.312 89.4744C158.806 92.1928 157.337 94.1049 152.872 95.4336L148.68 110.649C148.68 110.649 150.862 112.677 151.53 114.64C152.199 116.603 154.608 131.554 154.608 131.554C154.608 131.554 153.859 132.776 151.505 132.482C151.505 132.482 143.298 113.717 142.721 112.495C142.02 111.257 141.775 109.812 142.027 108.412C142.286 106.444 145.065 84.9049 145.065 84.9049L156.907 83.5254Z" fill="black"/>
<path d="M158.448 71.9532L148.018 70.2644C147.806 70.2187 147.461 70.1325 147.006 70.0159C147.006 70.0159 146.56 76.5684 143.882 78.0697C143.948 78.3841 144.003 78.734 144.054 79.1347C144.211 80.3925 145.067 84.886 145.067 84.886C145.067 84.886 149.117 86.8487 152.443 85.9003C155.769 84.9519 156.893 83.5369 156.893 83.5369L155.228 80.8185C155.693 79.6875 157.789 75.1433 158.448 71.9532Z" fill="#27DEBF"/>
<path d="M158.448 71.9532L148.018 70.2644C147.806 70.2187 147.461 70.1325 147.006 70.0159C147.006 70.0159 146.56 76.5684 143.882 78.0697C143.948 78.3841 144.003 78.734 144.054 79.1347C144.211 80.3925 145.067 84.886 145.067 84.886C145.067 84.886 149.117 86.8487 152.443 85.9003C155.769 84.9519 156.893 83.5369 156.893 83.5369L155.228 80.8185C155.693 79.6875 157.789 75.1433 158.448 71.9532Z" fill="#FFBE02"/>
<path d="M155.698 79.7366C154.312 80.5697 152.861 81.2872 151.359 81.8819C152.723 81.8546 154.058 81.4849 155.242 80.8067L155.698 79.7366Z" fill="#D3A10E"/>
<path d="M147.297 57.0636C147.297 57.0636 146.791 60.3601 147.986 62.2975C147.986 62.2975 148.431 60.984 149.54 61.2325C150.649 61.481 150.709 62.9467 149.93 63.7683C149.731 63.9992 149.471 64.1692 149.18 64.2589C148.889 64.3486 148.578 64.3544 148.284 64.2755C148.284 64.2755 148.112 66.6591 148.016 68.6574C147.92 70.6556 147.393 75.0122 149.636 76.772C151.879 78.5319 157.509 79.1506 160.146 75.4585C161.615 73.4044 159.665 69.7731 158.759 65.7006C157.924 61.9577 157.453 56.4093 153.489 55.5167C149.525 54.6241 147.297 57.0636 147.297 57.0636Z" fill="#37474F"/>
<path d="M161.844 12.0199L161.009 12.5271C161.079 12.2293 161.118 11.9251 161.125 11.6192C161.125 9.92023 159.936 9.23556 158.467 10.0977C158.021 10.3677 157.622 10.7106 157.288 11.1121C157.288 8.82983 155.688 7.90171 153.713 9.04284C152.673 9.72258 151.807 10.6384 151.186 11.7161C150.565 12.7938 150.206 14.0029 150.139 15.2455C150.139 15.3621 150.139 15.4737 150.139 15.5853C149.63 15.5212 149.116 15.6398 148.686 15.92C147.912 16.425 147.269 17.1056 146.807 17.9067C146.345 18.7077 146.078 19.6065 146.028 20.5301C146.028 20.7449 146.05 20.959 146.094 21.1692L145.648 21.4278C144.438 22.1277 143.456 23.492 143.456 24.4708C143.456 25.4496 144.438 25.6829 145.648 24.978L161.849 15.6208C163.059 14.9209 164.042 13.5566 164.042 12.5778C164.042 11.599 163.054 11.3149 161.844 12.0199Z" fill="#1F67FF"/>
</g>
<defs>
<linearGradient id="paint0_linear_1_981" x1="23.882" y1="127.65" x2="35.8997" y2="127.65" gradientUnits="userSpaceOnUse">
<stop stop-color="#02CDFF"/>
<stop offset="0.494791" stop-color="#03C0FF"/>
<stop offset="1" stop-color="#005AFD"/>
</linearGradient>
<linearGradient id="paint1_linear_1_981" x1="13.1553" y1="128.693" x2="27.8719" y2="128.693" gradientUnits="userSpaceOnUse">
<stop stop-color="#FFCE00"/>
<stop offset="1" stop-color="#FFB003"/>
</linearGradient>
<linearGradient id="paint2_linear_1_981" x1="121.357" y1="97.9985" x2="135.416" y2="97.9985" gradientUnits="userSpaceOnUse">
<stop stop-color="#FFCE00"/>
<stop offset="1" stop-color="#FFB003"/>
</linearGradient>
<linearGradient id="paint3_linear_1_981" x1="49.6502" y1="88.5795" x2="71.7253" y2="88.5795" gradientUnits="userSpaceOnUse">
<stop stop-color="#02CDFF"/>
<stop offset="0.494791" stop-color="#03C0FF"/>
<stop offset="1" stop-color="#005AFD"/>
</linearGradient>
<linearGradient id="paint4_linear_1_981" x1="38.6905" y1="108.563" x2="68.7382" y2="108.563" gradientUnits="userSpaceOnUse">
<stop stop-color="#FFCE00"/>
<stop offset="1" stop-color="#FFB003"/>
</linearGradient>
<linearGradient id="paint5_linear_1_981" x1="109.315" y1="45.3612" x2="106.508" y2="52.0316" gradientUnits="userSpaceOnUse">
<stop stop-color="#FFAC00"/>
<stop offset="1" stop-color="#FE7801"/>
</linearGradient>
<linearGradient id="paint6_linear_1_981" x1="102.583" y1="51.5238" x2="111.266" y2="51.5238" gradientUnits="userSpaceOnUse">
<stop stop-color="#FFCE00"/>
<stop offset="1" stop-color="#FFB003"/>
</linearGradient>
<linearGradient id="paint7_linear_1_981" x1="107.665" y1="52.4918" x2="111.458" y2="52.4918" gradientUnits="userSpaceOnUse">
<stop stop-color="#FE8B01"/>
<stop offset="1" stop-color="#FE7801"/>
</linearGradient>
<linearGradient id="paint8_linear_1_981" x1="102.712" y1="47.5896" x2="106.484" y2="47.5896" gradientUnits="userSpaceOnUse">
<stop stop-color="#FFCE00"/>
<stop offset="1" stop-color="#FFC101"/>
</linearGradient>
<clipPath id="clip0_1_981">
<rect width="178.662" height="166.223" fill="white" transform="translate(0.669006)"/>
</clipPath>
</defs>
</svg>
